<?xml version="1.0" encoding="utf-8"?>
<!-- Generator: Adobe Illustrator 16.0.0, SVG Export Plug-In . SVG Version: 6.00 Build 0)  -->
<!DOCTYPE svg PUBLIC "-//W3C//DTD SVG 1.1//EN" "http://www.w3.org/Graphics/SVG/1.1/DTD/svg11.dtd">
<svg version="1.1" xmlns="http://www.w3.org/2000/svg" xmlns:xlink="http://www.w3.org/1999/xlink" x="0px" y="0px"
	 width="595.28px" height="841.89px" viewBox="0 0 595.28 841.89" enable-background="new 0 0 595.28 841.89" xml:space="preserve">
<g id="Layer_2" display="none">
	<rect y="9.349" display="inline" fill-rule="evenodd" clip-rule="evenodd" fill="#22B24B" width="610.624" height="722.936"/>
</g>
<g id="Layer_1">
	<g>
		<path fill-rule="evenodd" clip-rule="evenodd" fill="#F37A61" d="M174.655,179.771c0-0.333,0-0.667,0-1c9.333,0,18.665,0,27.997,0
			c0,0.333,0,0.667,0,1C193.319,179.771,183.987,179.771,174.655,179.771z"/>
		<path fill-rule="evenodd" clip-rule="evenodd" d="M124.661,579.721c0,0.333,0,0.666,0,0.999c-1.666,0-3.333,0-4.999,0
			c0-0.594,0-1.188,0-1.987C121.375,580.053,123.057,579.654,124.661,579.721z"/>
		<path fill-rule="evenodd" clip-rule="evenodd" d="M165.906,519.37c-0.928,16.616-0.684,21.209,1.274,25.353
			c0.466,0.059,1.016-0.191,1.512,0.673c-3.074,0.63-6.014,0.19-9.069,0.362c0.359-1.275,1.146-0.908,1.628-1.141
			c1.85-3.473,1.385-7.229,1.398-10.914c0.026-7.317,0.008-14.634,0.008-21.951c0-0.965,0-1.93,0-3.576
			c9.578,9.809,19.149,18.581,27.886,29.514c0.046-3.041,0.092-5.14,0.106-7.239c0.016-2.328,0.004-4.657,0.004-6.985
			c0-2.162-0.093-4.328,0.026-6.483c0.119-2.133-0.109-4.138-1.279-6c-1.098-0.789-2.591,0.347-3.68-0.67
			c0.497-0.841,6.759-0.895,11.903-0.112c-0.649,1.107-1.858,0.105-2.689,0.761c-1.358,1.705-1.309,3.771-1.298,5.878
			c0.043,8.646,0.018,17.295,0.018,25.942c0,0.958,0,1.917,0,3.224c-1.933-0.646-3.355-1.108-4.51-2.273
			c-4.802-4.84-9.969-9.37-14.334-14.574C172.071,525.891,169.062,522.934,165.906,519.37z"/>
		<path fill-rule="evenodd" clip-rule="evenodd" d="M296.813,538.102c2.293,6.506,7.721,5.83,13.147,5.517
			c4.528-2.69,5.384-7.442,5.609-12.237c0.28-5.983,0.067-11.99,0.067-17.986c-1.269-1.653-2.521-3.331-4.938-3.229
			c0.273-0.146,0.546-0.416,0.819-0.417c3.963-0.027,7.927-0.02,12.433-0.02c-1.271,1.828-4.143-0.316-4.315,2.386
			c0,6.147-0.098,12.298,0.035,18.442c0.086,3.943-0.872,7.451-2.997,10.776c-1.664,2.604-5.723,5.343-8.752,5.384
			c-2.831,0.037-5.663,0.008-8.514,0.008c-0.807-0.417-1.558-0.923-2.459-1.262c-3.988-1.495-5.22-5.038-6.342-8.74
			c-1.709-5.643-0.688-11.392-0.948-17.087c-0.113-2.485-0.019-4.979-0.019-7.244c-0.845-1.823-2.514-1.529-4.829-2.202
			c3.223-0.725,5.574-0.386,7.877-0.447c2.284-0.061,4.571-0.014,6.928-0.014c-0.381,1.774-2.792,0.113-2.803,2.147
			C296.813,520.658,296.813,529.44,296.813,538.102z"/>
		<path fill-rule="evenodd" clip-rule="evenodd" d="M340.808,544.478c1.679,0.685,3.123,1.471,5.462,1.52
			c-3.346,1.836-5.597-0.449-8.148-0.448c-2.545,0.001-4.801,2.278-7.832,0.621c2.227-0.337,3.147-1.877,4.309-2.896
			c0-10.497,0-20.809,0-30.944c-0.811-1.788-2.5-1.449-4.8-2.169c3.23-0.688,5.585-0.359,7.894-0.419
			c2.283-0.06,4.567-0.014,7.321-0.014c-1.341,1.639-3.526,0.211-4.205,2.971C340.808,522.652,340.808,533.427,340.808,544.478z"/>
		<path fill-rule="evenodd" clip-rule="evenodd" d="M203.802,535.419c-0.751-1.873,0.858-3.008,1.181-4.599
			c5.088,0,10.196,0,15.389,0c0.186,0.995-0.775,1.222-1.132,1.824C214.019,532.756,208.98,533.824,203.802,535.419z"/>
		<path fill-rule="evenodd" clip-rule="evenodd" d="M139.413,569.942c-2.363-1.565-2.365-1.569-4.591,0.109
			c-0.594,2.167,0.391,4.521-0.915,7.695c0-3.917,0-6.816,0-9.874c1.72,0,3.506,0,5.403,0c0.36,0.361,0.831,0.831,1.201,1.201
			c0,2.552,0,5.001,0,7.416c-0.265,0.044-0.475,0.104-0.486,0.077C139.141,574.503,140.05,572.332,139.413,569.942z"/>
		<path fill-rule="evenodd" clip-rule="evenodd" d="M169.635,575.02c1.406-0.641,1.914,0.063,2.362,0.544
			c0.598-0.501,1.195-1.001,1.678-1.405c-0.162-2.039-1.517-2.512-2.967-2.565c0-1.433-0.309-2.569,0.222-3.677
			c1.265-0.406,2.483-0.174,3.877-0.039c-0.835,1.395-2.01,0.475-2.804,0.999c-0.462,0.231-0.378,0.377-0.009,0.716
			c1.321,1.209,2.582,2.483,3.813,3.683c-0.51,1.783-1.815,2.512-2.779,3.434C171.525,576.888,170.441,576.393,169.635,575.02z"/>
		<path fill-rule="evenodd" clip-rule="evenodd" d="M210.962,575.961c-2.204,1.925-3.456-0.429-5.065-0.48
			c-0.567-1.781-1.932-3.383-1.08-5.425c0.706-0.706,1.411-1.412,2.275-2.275c1.424-0.018,3.012-0.308,4.79,0.292
			c-1.577,1.384-4.033-0.395-5.104,2.458c0,0.882,0,2.331,0,3.798C208.073,574.893,209.222,575.842,210.962,575.961z"/>
		<path fill-rule="evenodd" clip-rule="evenodd" d="M181.654,574.721c0.808-0.153,0.972,0.727,1.549,0.951
			c0.455-0.455,0.919-0.919,1.633-1.633c-1.475-1.244-2.95-2.489-4.346-3.667c0.85-3.159,2.85-2.897,5.104-2.343
			c-0.556,1.519-2.176-0.047-2.774,1.026c-0.656,1.238,0.454,1.71,1.058,2.376c0.641,0.705,1.341,1.355,1.866,1.88
			c-0.994,3.788-1.483,4.041-4.089,2.409c-0.225-0.222-0.3-0.444-0.225-0.666C181.504,574.832,181.579,574.721,181.654,574.721z"/>
		<path fill-rule="evenodd" clip-rule="evenodd" d="M238.724,564.689c1.293,0.925,0.709,1.805,0.953,2.525
			c0.374,0.856,1.609,0.108,1.925,1.17c-0.578,0.204-1.152,0.407-1.841,0.65c0,1.728,0,3.502,0,6.078
			c0.231,0.231,0.874,0.874,1.46,1.46c-1.258,0.853-1.671-0.74-2.515-1.293c-0.398-2.49,0.726-5.196-1.059-7.49
			C237.411,566.504,239.898,566.474,238.724,564.689z"/>
		<path fill-rule="evenodd" clip-rule="evenodd" d="M111.838,576.573c0-2.883,0-5.766,0-8.755c0.369,0.18,0.794,0.289,0.795,0.404
			c0.037,2.769,0.029,5.538,0.029,8.308C112.388,576.545,112.113,576.559,111.838,576.573z"/>
		<path fill-rule="evenodd" clip-rule="evenodd" d="M218.481,567.885c0,2.55,0,5.1,0,8.391c-1.277-1.844-0.693-3.265-0.807-4.541
			c-0.113-1.275-0.025-2.568-0.025-3.853C217.927,567.883,218.204,567.884,218.481,567.885z"/>
		<path fill-rule="evenodd" clip-rule="evenodd" d="M218.149,565.731c-0.726-0.676-0.726-1.343,0-2.019
			C218.875,564.389,218.875,565.056,218.149,565.731z"/>
		<path fill-rule="evenodd" clip-rule="evenodd" d="M112.163,563.713c0.726,0.676,0.726,1.343,0,2.019
			C111.437,565.056,111.437,564.389,112.163,563.713z"/>
		<path fill-rule="evenodd" clip-rule="evenodd" d="M181.654,574.721c0,0.334,0,0.667,0,1c-0.486,0.035-0.929-0.063-0.793-0.662
			C180.898,574.895,181.378,574.831,181.654,574.721z"/>
		<path fill-rule="evenodd" clip-rule="evenodd" d="M210.655,575.717c-0.085-0.48,0.135-0.783,0.592-0.886
			c0.078-0.018,0.312,0.216,0.294,0.294C211.438,575.581,211.135,575.802,210.655,575.717z"/>
		<path fill-rule="evenodd" clip-rule="evenodd" d="M261.707,569.215c0.669-1.255,2.328,0.387,2.853-1.227
			c-2.179-0.477-4.189-0.792-5.083,2.347c1.412,1.184,2.897,2.428,4.382,3.672c-0.74,0.739-1.206,1.205-1.662,1.661
			c-0.583-0.215-0.744-1.104-1.553-0.947c-0.276,0.11-0.755,0.174-0.792,0.338c-0.136,0.599,0.307,0.697,0.792,0.662
			c1.876,1.172,1.876,1.172,3.976-0.584c0-1.002,0-1.982,0-2.945C263.482,571.306,261.353,571.369,261.707,569.215z"/>
		<g>
			<path fill-rule="evenodd" clip-rule="evenodd" d="M105.81,567.904c-1.843,0-3.41,0-5.074,0c-0.036,0.788-0.065,1.432-0.104,2.281
				c1.041,1.044,2.168,2.174,3.032,3.04c0,1.157,0,1.82,0,2.495c0,0.005,0,0.01,0,0.015c0.611-0.161,1.339,0.31,1.899-0.421
				c0-0.728,0-1.511,0-2.671c-1.207-1.05-2.561-2.229-3.914-3.405C102.802,568.058,104.546,569.439,105.81,567.904z"/>
			<path fill-rule="evenodd" clip-rule="evenodd" d="M102.422,576.701c0.671,0.075,1.313-0.042,1.242-0.98c-0.667,0-1.333,0-2,0
				C101.551,576.33,101.923,576.646,102.422,576.701z"/>
			<path fill-rule="evenodd" clip-rule="evenodd" d="M101.068,574.831c-0.078-0.018-0.312,0.216-0.294,0.294
				c0.103,0.456,0.406,0.677,0.886,0.592C101.745,575.236,101.524,574.934,101.068,574.831z"/>
		</g>
		<path fill-rule="evenodd" clip-rule="evenodd" fill="#ED2327" d="M547.129,481.728c-1.592,0.228-3.309,0.203-5.262,0.776
			c-2.104,0.617-3.963,1.752-6.064,2.362c-4.919,1.428-9.689,3.359-14.824,3.999c-2.742,2.127-6.253,1.987-9.355,2.66
			c-3.379,0.733-6.916,1.838-10.542,1.223c-0.645-0.109-1.607-0.284-1.941,0.052c-1.864,1.875-4.106,0.729-6.145,0.878
			c-2.239,0.163-4.19,1.302-6.586,1.137c-10.674-0.733-21.384,0.722-32.101-0.91c-4.258-0.646-8.618-1.85-13.058-1.18
			c-0.326,0.049-0.85,0.146-0.972-0.015c-1.485-1.953-3.996-0.069-5.429-1.357c-1.685-1.514-3.742,0.106-5.553-1.238
			c-1.378-1.022-3.559-0.975-5.387-1.38c-5.319-1.179-10.721-2.045-15.838-4.008c-5.915-2.271-12.177-3.401-18.086-5.817
			c-2.801-1.145-5.615-2.535-8.669-3.242c-3.145-0.729-6.016-2.363-9.003-3.579c-6.564-2.671-13.08-5.438-19.532-8.36
			c-2.949-1.335-5.878-2.714-8.782-4.142c-2.907-1.429-5.459-3.66-8.894-3.878c-0.964-2.303-3.664-1.646-5.254-3.101
			c-1.433-1.311-3.463-1.995-5.274-2.861c-10.03-4.796-19.771-10.161-29.751-15.059c-3.184-1.563-6.208-3.453-9.429-4.997
			c-6.357-3.046-12.581-6.37-18.836-9.567c0.267-1.687,1.483-2.695,2.487-3.112c1.291-0.537,2.091-1.441,3.073-2.241
			c8.156-6.651,15.627-13.987,22.204-22.215c1.197-1.498,2.658-2.664,3.652-4.47c1.967-3.571,4.643-6.746,6.945-10.139
			c4.636-6.83,7.936-14.338,10.666-22.072c2.062-5.836,4.025-11.683,5.463-17.774c1.719-7.286,2.929-14.584,3.502-21.979
			c0.423-5.466,0.188-10.995,0.053-16.49c-0.13-5.277-1.324-10.463-1.809-15.685c-0.429-4.633-2.93-8.888-2.161-13.654
			c-1.932-3.393-2.436-7.31-3.986-10.847c-1.546-3.524-2.856-7.156-4.505-10.63c-2.465-5.193-5.152-10.251-8.449-15.015
			c-4.137-5.978-11.413-14.456-16.164-18.727c-3.97-3.569-7.708-7.299-12.202-10.338c-4.162-2.815-8.361-5.531-12.751-7.931
			c-5.14-2.809-10.367-5.481-15.894-7.479c-4.351-1.572-8.644-3.801-13.135-4.366c-5.834-0.734-11.211-3.727-17.23-3.189
			c-1.843-1.989-4.502-0.169-6.442-1.329c-2.361-1.41-4.839-0.291-7.227-0.671c-8.872-1.079-17.78-0.191-26.676-0.483
			c-9.196-0.15-18.232,0.779-27.196,2.978c-45.551,11.174-76.228,39-93.015,82.559c-4.093,10.621-6.22,21.633-7.094,32.931
			c0,8.666,0,17.332,0,25.997c0.991-0.076,0.997,0.615,0.998,1.295c0.004,2-0.542,4.201,0.11,5.958
			c1.55,4.168,1.562,8.614,2.861,12.803c0.654,2.108,0.606,4.51,1.267,6.487c2.197,6.561,4.441,13.132,7.276,19.467
			c5.078,11.346,11.413,21.994,19.559,31.33c4.834,5.54,10.112,10.776,16,15.4c7.697,6.043,15.902,11.115,24.726,15.213
			c5.588,2.596,11.297,4.953,17.26,6.591c4.345,1.192,8.782,2.09,13.044,3.52c2.546,0.854,5.315,0.19,7.551,1.069
			c4.352,1.711,8.855,0.575,13.283,1.604c4.743,1.102,9.944,0.391,14.936,0.208c4.865-0.177,9.774,0.756,14.612-0.871
			c1.646-0.554,3.665-0.29,5.461-0.035c2.047,0.292,3.616-1.47,5.589-1.038c1.868,0.408,3.388-0.793,5.091-0.976
			c4.859-0.521,9.437-2.162,14.124-3.353c2.898-0.736,5.674-2.01,8.667-1.465c3.979,1.265,6.784,4.438,10.465,6.191
			c5.466,2.605,10.445,6.079,15.751,8.985c4.89,2.68,9.636,5.761,14.517,8.483c4.876,2.721,9.515,5.831,14.436,8.497
			c5.855,3.173,11.552,6.762,17.396,9.977c10.67,5.868,21.662,11.155,32.856,15.977c3.956,1.704,8,3.229,12.072,4.636
			c6.711,2.317,13.386,4.842,20.259,6.546c3.619,0.898,7.063,3.1,10.984,2.423c1.513-0.261,2.096,1.437,3.608,1.121
			c1.236-0.258,2.658-0.158,3.887,0.183c3.21,0.893,6.396,1.792,9.766,1.753c1.166-0.013,2.544-0.406,3.461,0.072
			c3.138,1.637,6.569,0.139,9.581,1.054c3.405,1.033,6.751,0.938,10.12,0.825c7.195-0.238,14.417,0.781,21.6-0.867
			c3.254-0.747,6.688-0.315,10.099-0.856c4.695-0.744,9.453-1.157,14.149-2.137c1.99-0.414,4.058-0.575,6.091-0.952
			c2.008-0.373,4.041-0.631,6.071-1.083c6.979-1.557,13.777-3.722,20.592-5.826c4.857-1.499,9.628-3.288,14.402-5.017
			c6.695-2.424,13.102-5.4,19.595-8.23c1.55-0.676,3.001-1.583,4.79-2.54c0.23-0.259-0.395-1.554,0.973-1.44c0-0.334,0-0.667,0-1
			C547.239,483.846,547.869,482.545,547.129,481.728z M258.276,241.128c1.264,3.964,4.93,6.151,4.321,10.239
			c-6.029,2.468-11.352,6.042-16.491,9.677c-4.741,3.354-9.747,6.244-14.684,9.195c-3.203,1.915-7.065,3.1-10.963,3.495
			c-0.247,0.025-0.528-0.297-1.157-0.679c2.402-3.566,6.822-4.272,9.73-7.029c3.112-2.949,6.771-5.319,10.118-8.046
			c3.208-2.614,6.588-5.089,9.57-7.935C251.764,247.14,255.698,245.307,258.276,241.128z M198.069,247.786
			c-7.442,1.058-15.081,0.89-21.969,4.902c-6.732,3.922-11.635,9.322-15.521,15.944c-1.028,1.751-0.255,3.833-1.631,5.336
			c0.293,3.859-2.862,7.536-0.391,11.61c0.665,1.096,0.101,2.938,0.101,4.526c-3.729,4.666-8.884,7.632-13.941,10.593
			c-7.474,4.376-14.973,8.723-22.801,12.491c-1.96,0.944-4.071,1.41-5.997,2.47c-1.819,1-3.727,1.747-5.164,3.595
			c0,0.791,0,1.765,0,2.902c0.9,1.596,2.571,2.533,5.25,3.691c1.483,0.364,4.171-0.825,6.582,0.834
			c0.679,0.467,2.141,0.426,2.917,0.009c3.12-1.678,6.425-0.582,9.616-0.955c2.236-0.262,4.556,0.68,6.732-0.64
			c1.956-1.187,4.322,0.276,6.534-1.199c1.724-1.149,4.521,0.757,6.572-0.943c4.647,0.005,9.015-1.726,13.586-2.192
			c0.624-0.063,1.26-0.009,2.074-0.009c0.174,2.48-1.258,4.346-2.341,5.636c-2.936,3.499-3.713,7.852-5.576,11.746
			c-3.032,6.339-3.414,13.512-5.945,20.03c-0.112,0.289-0.127,0.645-0.089,0.958c0.57,4.76-1.297,9.306-1.15,14.087
			c0.091,2.955,0.912,5.707,1.246,8.568c0.285,2.443,2.375,4.106,4.336,5.853c1.283,0,2.734,0,4.265,0
			c2.501-3.272,3.623-6.973,3.281-10.834c2.401-5.987,6.395-10.019,12.309-12.052c1.404,0.542,0.655,1.746,0.66,2.586
			c0.064,9.998,0.261,20.002-0.027,29.992c-0.238,8.24,1.833,16.346,1.057,24.581c-0.151,1.604,1.763,2.789,0.669,4.821
			c-4.166,0.261-8.301-0.999-12.275-2.24c-6.314-1.97-12.524-4.344-18.286-7.729c-5.32-3.126-10.745-6.086-15.12-10.552
			c-2.396-2.445-5.435-4.101-7.755-6.68c-5.476-6.086-10.615-12.463-15.014-19.327c-1.535-2.395-2.831-5.132-4.236-7.704
			c-2.151-3.936-3.125-8.426-5.811-12.095c0.139-2.481-1.515-4.425-2.02-6.637c-0.526-2.307-1.612-4.489-1.928-6.669
			c-0.341-2.357-1.833-4.558-1.203-7.055c-1.823-1.503-0.462-3.931-1.802-5.788c-1.136-1.574,0.806-4.229-1.155-5.999
			c-0.168-0.152-0.062-0.639-0.039-0.967c0.449-6.568-1.474-12.98-1.089-19.586c0.388-6.643-0.429-13.381,0.281-19.97
			c0.417-3.876,0.221-7.819,0.956-11.575c0.631-3.222,0.834-6.537,1.824-9.707c1.526-4.89,2.202-9.986,3.944-14.86
			c2.723-7.619,5.894-14.882,10.284-21.773c3.7-5.807,7.999-10.908,12.886-15.618c3.333-3.212,7.201-5.726,11.127-8.137
			c5.434-3.338,11.239-5.77,17.373-7.578c1.255-0.371,2.465-0.774,3.681-0.652c1.422,0.143,2.239-0.996,3.573-1.185
			c2.529-0.358,5.149-0.481,7.562-1.046c2.739-0.642,5.397-0.783,8.125-0.819c2.666-0.036,5.406-0.402,7.981,0.082
			c4.213,0.792,8.573,0.753,12.667,1.974c4.292,1.28,8.677,2.192,12.896,3.839c4.925,1.922,9.6,4.289,14.124,6.915
			c4.34,2.52,8.585,5.315,12.457,8.495c3.716,3.053,6.899,6.755,10.342,10.199c-9.278,9.65-20.73,16.497-31.614,24.426
			c-2.436,0.911-4.863-0.616-7.271-1.131c-2.056-0.44-4.076-1-6.116-0.744C200.897,249.051,199.659,247.56,198.069,247.786z
			 M202.651,427.584c0-3.398-0.214-6.866,0.05-10.297c0.406-5.269-0.899-10.386-1.021-15.588c-0.125-5.33,0.723-10.802-0.218-15.962
			c-1.171-6.42-0.404-12.761-0.807-19.118c-0.052-0.82,0.071-1.674-0.116-2.457c-1.093-4.579-1.116-4.573,1.464-8.3
			c1.551,0,3.188,0,5.021,0c0.757,0.405,1.774,0.826,2.657,1.442c4.312,3.011,7.13,6.769,8.754,11.772
			c0.292,0.9,0.203,1.939,0.206,2.914c0.018,5,0.1,10.001-0.015,14.997c-0.145,6.32,1.898,12.101,4.505,17.638
			c2.63,5.585,5.13,11.267,8.883,16.29C223.703,425.077,212.601,428.597,202.651,427.584z M257.507,400.062
			c-2.509,3.336-4.929,6.917-8.397,9.624c-1.285,0.283-2.504,0.028-3.288-1.277c-3.834-6.382-8.194-12.514-11.07-19.381
			c-2.285-5.456-4.554-11.008-4.183-17.278c0.363-6.136,0.089-12.311,0.076-18.47c-0.01-4.482-1.896-7.411-6.101-8.47
			c-4.612-1.162-7.483-4.2-9.886-7.944c-0.888-1.384-1.333-2.903-0.876-4.775c5.706-5.52,11.607-11.196,14.024-19.497
			c-2.072-2.329-4.071-4.335-7.139-5.502c-3.244-1.235-6.662-2.974-7.067-7.173c0.284-1.591,1.844-1.974,2.363-3.108
			c3.694,0.082,6.748-1.606,9.952-2.803c3.609-1.347,6.931-3.305,10.519-4.747c4.274-1.717,8.098-4.555,12.116-6.907
			c3.215-1.881,6.58-3.552,9.607-5.698c3.908-2.771,7.547-5.92,11.925-9.402c1.489,4.341,3.182,8.058,3.696,12.347
			c0.497,4.146,1.242,8.355,2.623,12.358c0.23,0.667,0.155,1.267,0.236,1.895c0.279,2.177-0.735,4.528,0.882,6.525
			c-2.53,2.121,0.681,4.045,0.225,6.234c-0.465,2.233-0.103,4.639-0.103,6.969c0,2.331,0,4.66,0,6.99
			c0,2.331,0.251,4.693-0.05,6.984c-0.745,5.673-0.25,11.51-1.206,17.023c-1.031,5.949-0.982,12.242-3.744,17.861
			c0.931,5.305-3.125,9.594-3,14.735c-2.118,2.587-2.562,5.946-4.046,8.805C263.101,390.788,260.738,395.766,257.507,400.062z"/>
		<path fill-rule="evenodd" clip-rule="evenodd" d="M322.708,555.072c-2.928,1.002-5.881,2.093-8.917,2.561
			c-2.767,0.426-5.685,0.356-8.471,0.001c-2.024-0.259-3.957-1.249-6.096-0.911c-1.068-2.052-3.249-0.938-4.854-1.539
			c-5.512-2.065-10.849-4.408-16.014-7.214c-3.531-1.92-7.42-3.169-10.719-5.546c0.147-0.246,0.197-0.384,0.291-0.479
			c0.937-0.947,1.875-1.895,2.825-2.829c8.307-8.166,9.442-18.124,6.792-28.783c-0.825-3.319-2.464-6.553-5.489-8.717
			c-0.668-0.479-1.143-1.221-1.787-1.742c-4.366-3.534-9.125-6.137-14.945-6.143c-2-0.002-4.022,0.196-5.994-0.039
			c-4.818-0.575-9.167,1.007-13.19,3.173c-4.453,2.397-8.046,6.017-10.451,10.52c-2.436,4.563-3.31,9.509-3.098,14.731
			c0.183,4.518,1.64,8.709,3.651,12.486c2.234,4.197,5.548,7.75,10.306,9.641c1.528,0.607,3.325,1.007,4.478,2.359
			c1.676,0.572,3.395-0.246,5.193,0.93c1.286,0.84,3.551,0.197,5.38,0.188c1.754-0.009,3.4-0.11,5.137-0.873
			c1.489-0.653,3.563,0.362,5.1-1.746c1.202,2.121,3.05,2.705,4.687,3.62c2.704,1.514,5.657,2.702,8.071,4.584
			c3.655,2.85,7.994,4.1,12.092,5.866c4.389,1.891,9.295,1.636,13.95,2.479c2.162,0.392,4.386-0.296,6.605-0.747
			c2.45-0.498,5.053-0.511,7.552-1.16c3.547-0.921,6.942-2.092,10.045-4.656C323.841,554.672,323.376,554.844,322.708,555.072z
			 M249.244,507.648c-2.552,2.474-5.255,4.705-4.539,8.651c-2.874,2.154-5.819,3.934-8.708,5.255
			c-0.373,1.245,0.594,1.294,0.796,1.886c3.295,1.504,6.458-1.96,10.068-0.24c-2.259,3.899-2.618,8.07-2.056,12.392
			c3.265,0.373,2.432-2.424,3.218-3.848c0.415,0,0.742,0,1.09,0c0.102,0.088,0.332,0.192,0.332,0.298
			c0.019,3.777,0.016,7.556,0.016,11.799c-2.947-1.085-6.005-1.439-8.213-3.975c-1.416-1.627-3.425-2.847-4.485-4.65
			c-2.38-4.045-4.392-8.302-4.139-13.247c0.135-2.653,0.025-5.319,0.024-7.98c-0.002-5.945,2.509-10.689,6.839-14.638
			c1.595-1.455,3.697-1.692,5.531-2.297c2.095-0.691,4.608-0.583,6.848-0.233c2.244,0.351,4.455,1.256,6.528,2.239
			c1.671,0.793,3.541,1.57,4.277,3.672C259.665,508.406,254.373,508.016,249.244,507.648z M265.305,506.873
			c-1.208,3.621-4.353,4.55-7.411,5.619C260.525,510.829,262.385,508.18,265.305,506.873z M258.27,543.627c-1.436,0-2.878,0-4.46,0
			c0-4.643,0-9.188,0-13.896c2.801-0.022,2.436,2.336,3.598,3.285c-2.031,2.074,1.599,3.951,0.134,5.735
			c0.498,1.365,1.939,1.662,2.132,3.145C259.73,542.699,258.686,542.917,258.27,543.627z M266.362,536.427
			c-0.783,1.116-0.77,2.9-2.657,3.334c-2.665-0.72-2.172-3.921-3.997-5.462c0-1.924,0-3.902,0-6.172
			c-1.022-0.832-2.17-1.768-2.978-2.426c-0.351-2.175,1.515-2.472,1.896-3.685c0.553-1.851-0.917-2.652-2.003-3.819
			c0.596-0.492,1.126-1.094,1.789-1.449c2.969-1.6,6.327-2.492,8.79-4.962c0.411,0.411,0.764,0.764,1.296,1.297
			c0.098,3.813,2.157,7.767,1.032,11.712C268.425,528.668,268.779,532.976,266.362,536.427z"/>
		<path fill-rule="evenodd" clip-rule="evenodd" d="M106.556,523.725c-0.646-3.634-2.562-7.059-5.234-9.753
			c-1.741-1.755-9.497-4.222-12.185-4.233c-6.983-0.029-13.967-0.013-20.95,0.019c-0.121,0.001-0.239,0.422-0.462,0.843
			c1.298,0.438,2.727-0.361,3.731,0.416c0.459,0.46,0.812,0.813,1.213,1.213c0,3.937,0,7.92,0,11.904
			c0,5.32-0.014,10.642,0.006,15.963c0.009,2.317-0.511,4.29-3.784,5.421c5.64,0.556,10.214-0.396,14.676,1.128
			c1.489,0.508,3.617,0.651,4.886-0.056c1.861-1.037,3.945-0.623,5.837-1.675c1.171-0.65,3.107-0.724,4.255-1.658
			C104.717,538.227,107.984,531.752,106.556,523.725z M99.59,535.722c-1.651,4.086-4.35,7.339-9.211,8.046
			c-1.858,0.27-3.59,1.263-5.575,0.973c-0.96-0.139-4.92-1.614-6.138-2.475c0-9.85-0.004-19.799,0.021-29.747
			c0-0.264,0.312-0.526,0.479-0.79c1.828,0,3.666-0.126,5.481,0.023c5.72,0.47,12.938,3.966,15.085,11.352
			C100.987,527.422,101.236,531.649,99.59,535.722z"/>
		<path fill-rule="evenodd" clip-rule="evenodd" d="M151.574,521.872c-0.954-3.577-2.392-7.033-5.969-9.19
			c-5.68-3.424-10.149-4.08-16.94-3.035c-6.516,1.002-11.033,4.136-13.635,10.167c-0.359,0.833-0.353,1.942-1.367,2.423
			c0,2.67,0.093,5.336-0.027,7.993c-0.112,2.474,0.733,4.641,1.799,6.755c3.17,6.286,8.82,8.855,15.348,9.682
			c5.211,0.659,10.07-0.983,14.265-4.005c2.714-1.954,4.674-4.629,5.667-8.06C152.664,527.865,153.063,527.453,151.574,521.872z
			 M139.483,543.416c-1.185,0.488-2.633,0.996-3.846,1.167c-3.536,0.499-6.898-0.635-9.608-3.031
			c-4.258-3.765-6.432-8.54-6.37-14.276c0.016-1.493,0.186-3.016-0.047-4.473c-0.253-1.588,0.959-2.604,1.176-4.056
			c0.359-2.404,2.087-4.457,4.145-5.649c2.091-1.213,4.424-2.743,6.954-2.281c2.699,0.492,5.536,1.049,7.606,3.232
			c1.255,1.325,2.575,2.589,3.89,3.903C146.455,527.325,147.931,536.132,139.483,543.416z"/>
		<path fill-rule="evenodd" clip-rule="evenodd" d="M81.035,565.59c-2.59-2.622-5.902-1.679-9.219-1.913c0,4.324,0,8.087,0,11.78
			c0.713,0.293,1.396,0.397,1.814,0.787c0.568,0.528,1.165,0.466,1.975,0.476c1.341-1.099,3.398-0.752,4.894-2.211
			c1.521-1.485,0.852-3.666,2.62-4.991C80.823,568.707,82.392,566.556,81.035,565.59z M80.64,572.248
			c-0.824,0.824-1.648,1.648-2.473,2.473c-1.332,0-2.665,0-4.005,0c-0.113-0.114-0.331-0.232-0.332-0.352
			c-0.019-3.117-0.015-6.234-0.015-9.324c2.042-0.965,3.729,0.079,5.589,0.949C80.772,567.754,80.778,569.985,80.64,572.248z"/>
		<path fill-rule="evenodd" clip-rule="evenodd" d="M159.369,565.589c-0.148,1.033-0.169,1.663-0.127,2.09
			c0.335-0.216,0.537-0.754,0.988-0.894c0.548,1.426,1.775,2.642,1.423,4.39c-0.744,1.022-1.736,0.454-2.823,0.389
			c0-1.271,0-2.557,0-3.807c0.146,0.03,0.266,0.001,0.373-0.059C159.176,567.259,159.217,566.612,159.369,565.589
			c-1.126,2.09-2.833,6.005-4.565,9.982c2.81,0.746,1.54-2.717,3.344-2.682c1.458,0,2.915,0,4.262,0
			c0.56,1.504,0.921,2.96,3.246,2.78C163.215,571.92,163.271,567.347,159.369,565.589z"/>
		<path fill-rule="evenodd" clip-rule="evenodd" d="M228.128,566.742c-0.369,1.047-1.815,0.734-2.498,1.51
			c1.372,1.146,3.238-0.451,2.682,2.637c0,0,0,0.001-0.001,0.001c0,0,0,0,0,0c-0.087,0.079-0.165,0.152-0.236,0.223
			c0.071-0.07,0.147-0.144,0.235-0.223c-2.788,0.579-4.626,2.631-3.435,4.548c1.006,0.442,1.986,0.873,2.944,1.294
			c0.843-0.095,1.092-1.339,2.131-0.993c0.608-0.054,0.662,1.05,1.569,0.713c0-2.41,0-4.852,0-7.401
			C230.911,567.665,229.02,567.919,228.128,566.742z M229.252,574.609c-0.801,0-1.566,0-2.465,0c0-1.036,0-1.962,0-2.762
			c0.226,0,0.461,0,0.699,0c0.075-0.143,0.188-0.306,0.363-0.498c0.063-0.069,0.131-0.142,0.208-0.218
			c-0.076,0.076-0.145,0.148-0.208,0.218c-0.177,0.196-0.29,0.358-0.356,0.498c0.933,0,1.954,0,3.095,0
			C230.079,572.898,229.653,573.778,229.252,574.609z"/>
		<path fill-rule="evenodd" clip-rule="evenodd" d="M198.545,569.475c-0.272,0.095-0.579,0.172-0.893,0.249c0,1.479,0,2.96,0,4.439
			c-0.461,1.007-2.017,0.188-2.446,1.756c-0.751-1.031-1.398-1.918-2.454-3.365c0-0.241,0-1.35,0-2.394
			c1.217-2.064,3.181-1.316,4.899-1.438c0,0.331,0,0.663,0,0.995C197.889,569.592,198.172,569.501,198.545,569.475
			c0.146-0.184-0.729-1.008-1.421-1.659c-1.558,0-2.859,0-4.034,0c-1.462,1.106-1.689,2.758-2.46,4.069
			c2.304,3.988,3.05,4.836,4.243,4.836c1.549,0.169,2.43-1.266,3.452-1.458C199.333,573.541,200.038,571.94,198.545,569.475z"/>
		<path fill-rule="evenodd" clip-rule="evenodd" d="M91.723,575.516c0.195-1.632-1.843-0.107-2.073-1.617
			c0.223-0.596-0.355-1.51,0.701-2.31c1.229,0,2.676,0,4.028,0c0.911-1.745-0.063-2.736-1.119-3.771c-1.393,0-2.839,0-4.19,0
			c-0.448,0.448-0.8,0.8-1.278,1.278c0,1.647,0,3.429,0,5.455c1.565,1.038,3.104,2.474,5.417,2.126
			c0.377-0.591,1.277-0.839,1.219-1.709C93.313,574.119,92.806,575.508,91.723,575.516z M93.665,568.708c0,0.819,0,1.142,0,1.611
			c-1.281,0.683-2.595,0.49-3.913,0.131c-0.039-0.461-0.064-0.772-0.106-1.265C90.854,568.257,92.332,568.937,93.665,568.708z"/>
		<g>
			<path stroke="#000000" stroke-miterlimit="10" d="M252.102,575.883c1.187-0.34,2.079,0.295,2.466-0.758
				C253.876,574.457,253.241,574.541,252.102,575.883z"/>
			<path stroke="#000000" stroke-miterlimit="10" d="M253.207,567.824c-1.378,0-2.823,0-4.131,0
				c-1.469,1.115-1.704,2.756-2.329,3.858c0.756,2.152,1.785,3.912,3.626,5.04c0.766-0.13,1.667,0.349,2.285-0.518
				c-1.791-0.841-3.588-1.674-4.202-4.086c2.045-0.943,4.299,0.193,6.131-0.757C254.885,569.83,254.553,568.651,253.207,567.824z
				 M252.646,570.332c-1.311,0.628-2.634,0.544-4.045,0.026c1.134-1.474,2.313-2.363,4.045-1.188
				C252.646,569.547,252.646,569.872,252.646,570.332z"/>
		</g>
		<path fill-rule="evenodd" clip-rule="evenodd" d="M120.662,574.17c0-1.655,0-3.552,0-5.448c-1.011-0.05-1.212,1.001-1.891,1.363
			c0,1.475,0,2.915,0,3.607c1.059,1.398,1.749,2.309,2.363,3.119c1.053-0.349,2.351,0.549,2.528-1.091
			C122.37,576.037,121.569,575.305,120.662,574.17z"/>
	</g>
	<path fill-rule="evenodd" clip-rule="evenodd" d="M121.42,567.743c-0.495,0.018-0.872,0.368-0.759,0.979c1.162,0,2.324,0,3.279,0
		c2.035,0.985,1.763,2.704,1.695,4.398c-0.44,0.98-1.799,1.346-1.974,2.601c0.702,0.105,1.59-0.362,2.008,0.667
		c0.244,1.272-1.741,1.897-1.008,3.333c0.998,0.051,1.201-0.981,1.8-1.306c0-3.582,0-7.092,0-10.693
		C124.648,567.722,123.033,567.687,121.42,567.743z"/>
</g>
</svg>
